<svg width="44" height="44" viewBox="0 0 44 44" fill="none" xmlns="http://www.w3.org/2000/svg">
<path d="M3.66699 36.6667V9.625C3.66699 9.31944 3.7281 9.04444 3.85033 8.8C3.97255 8.55555 4.15588 8.34167 4.40033 8.15833L11.7337 2.65833C12.0698 2.41389 12.4364 2.29167 12.8337 2.29167C13.2309 2.29167 13.5975 2.41389 13.9337 2.65833L21.267 8.15833C21.5114 8.34167 21.6948 8.55555 21.817 8.8C21.9392 9.04444 22.0003 9.31944 22.0003 9.625V12.8333H38.5003C39.0198 12.8333 39.4552 13.009 39.8066 13.3604C40.158 13.7118 40.3337 14.1472 40.3337 14.6667V36.6667C40.3337 37.1861 40.158 37.6215 39.8066 37.9729C39.4552 38.3243 39.0198 38.5 38.5003 38.5H5.50033C4.98088 38.5 4.54546 38.3243 4.19408 37.9729C3.84269 37.6215 3.66699 37.1861 3.66699 36.6667ZM7.33366 34.8333H11.0003V31.1667H7.33366V34.8333ZM7.33366 27.5H11.0003V23.8333H7.33366V27.5ZM7.33366 20.1667H11.0003V16.5H7.33366V20.1667ZM7.33366 12.8333H11.0003V9.16667H7.33366V12.8333ZM14.667 12.8333H18.3337V9.16667H14.667V12.8333ZM14.667 34.8333H36.667V16.5H14.667V34.8333ZM27.5003 20.1667H31.167C31.6864 20.1667 32.1219 20.3424 32.4732 20.6937C32.8246 21.0451 33.0003 21.4806 33.0003 22C33.0003 22.5194 32.8246 22.9549 32.4732 23.3062C32.1219 23.6576 31.6864 23.8333 31.167 23.8333H27.5003C26.9809 23.8333 26.5455 23.6576 26.1941 23.3062C25.8427 22.9549 25.667 22.5194 25.667 22C25.667 21.4806 25.8427 21.0451 26.1941 20.6937C26.5455 20.3424 26.9809 20.1667 27.5003 20.1667ZM27.5003 27.5H31.167C31.6864 27.5 32.1219 27.6757 32.4732 28.0271C32.8246 28.3785 33.0003 28.8139 33.0003 29.3333C33.0003 29.8528 32.8246 30.2882 32.4732 30.6396C32.1219 30.991 31.6864 31.1667 31.167 31.1667H27.5003C26.9809 31.1667 26.5455 30.991 26.1941 30.6396C25.8427 30.2882 25.667 29.8528 25.667 29.3333C25.667 28.8139 25.8427 28.3785 26.1941 28.0271C26.5455 27.6757 26.9809 27.5 27.5003 27.5ZM22.0003 22C22.0003 22.5194 21.8246 22.9549 21.4732 23.3062C21.1219 23.6576 20.6864 23.8333 20.167 23.8333C19.6475 23.8333 19.2121 23.6576 18.8607 23.3062C18.5094 22.9549 18.3337 22.5194 18.3337 22C18.3337 21.4806 18.5094 21.0451 18.8607 20.6937C19.2121 20.3424 19.6475 20.1667 20.167 20.1667C20.6864 20.1667 21.1219 20.3424 21.4732 20.6937C21.8246 21.0451 22.0003 21.4806 22.0003 22ZM20.167 31.1667C19.6475 31.1667 19.2121 30.991 18.8607 30.6396C18.5094 30.2882 18.3337 29.8528 18.3337 29.3333C18.3337 28.8139 18.5094 28.3785 18.8607 28.0271C19.2121 27.6757 19.6475 27.5 20.167 27.5C20.6864 27.5 21.1219 27.6757 21.4732 28.0271C21.8246 28.3785 22.0003 28.8139 22.0003 29.3333C22.0003 29.8528 21.8246 30.2882 21.4732 30.6396C21.1219 30.991 20.6864 31.1667 20.167 31.1667Z" fill="#7B7B7B"/>
</svg>
