<svg width="44" height="44" viewBox="0 0 44 44" fill="none" xmlns="http://www.w3.org/2000/svg">
<path d="M19.4333 25.3L15.4917 21.3583C15.1556 21.0222 14.7278 20.8542 14.2083 20.8542C13.6889 20.8542 13.2611 21.0222 12.925 21.3583C12.5889 21.6944 12.4208 22.1222 12.4208 22.6417C12.4208 23.1611 12.5889 23.5889 12.925 23.925L18.15 29.15C18.5167 29.5167 18.9444 29.7 19.4333 29.7C19.9222 29.7 20.35 29.5167 20.7167 29.15L31.075 18.7917C31.4111 18.4556 31.5792 18.0278 31.5792 17.5083C31.5792 16.9889 31.4111 16.5611 31.075 16.225C30.7389 15.8889 30.3111 15.7208 29.7917 15.7208C29.2722 15.7208 28.8444 15.8889 28.5083 16.225L19.4333 25.3ZM22 40.3333C19.4639 40.3333 17.0806 39.8521 14.85 38.8896C12.6194 37.9271 10.6792 36.6208 9.02916 34.9708C7.37916 33.3208 6.07291 31.3806 5.11041 29.15C4.14791 26.9194 3.66666 24.5361 3.66666 22C3.66666 19.4639 4.14791 17.0806 5.11041 14.85C6.07291 12.6194 7.37916 10.6792 9.02916 9.02916C10.6792 7.37916 12.6194 6.07291 14.85 5.11041C17.0806 4.14791 19.4639 3.66666 22 3.66666C24.5361 3.66666 26.9194 4.14791 29.15 5.11041C31.3806 6.07291 33.3208 7.37916 34.9708 9.02916C36.6208 10.6792 37.9271 12.6194 38.8896 14.85C39.8521 17.0806 40.3333 19.4639 40.3333 22C40.3333 24.5361 39.8521 26.9194 38.8896 29.15C37.9271 31.3806 36.6208 33.3208 34.9708 34.9708C33.3208 36.6208 31.3806 37.9271 29.15 38.8896C26.9194 39.8521 24.5361 40.3333 22 40.3333ZM22 36.6667C26.0944 36.6667 29.5625 35.2458 32.4042 32.4042C35.2458 29.5625 36.6667 26.0944 36.6667 22C36.6667 17.9056 35.2458 14.4375 32.4042 11.5958C29.5625 8.75416 26.0944 7.33333 22 7.33333C17.9056 7.33333 14.4375 8.75416 11.5958 11.5958C8.75416 14.4375 7.33333 17.9056 7.33333 22C7.33333 26.0944 8.75416 29.5625 11.5958 32.4042C14.4375 35.2458 17.9056 36.6667 22 36.6667Z" fill="#26BC7D"/>
</svg>
