<svg width="40" height="40" viewBox="0 0 40 40" fill="none" xmlns="http://www.w3.org/2000/svg">
<path d="M20.0003 20C18.167 20 16.5975 19.3472 15.292 18.0416C13.9864 16.7361 13.3337 15.1666 13.3337 13.3333C13.3337 11.5 13.9864 9.93052 15.292 8.62496C16.5975 7.3194 18.167 6.66663 20.0003 6.66663C21.8337 6.66663 23.4031 7.3194 24.7087 8.62496C26.0142 9.93052 26.667 11.5 26.667 13.3333C26.667 15.1666 26.0142 16.7361 24.7087 18.0416C23.4031 19.3472 21.8337 20 20.0003 20ZM6.66699 30V28.6666C6.66699 27.7222 6.91005 26.8541 7.39616 26.0625C7.88227 25.2708 8.5281 24.6666 9.33366 24.25C11.0559 23.3888 12.8059 22.743 14.5837 22.3125C16.3614 21.8819 18.167 21.6666 20.0003 21.6666C21.8337 21.6666 23.6392 21.8819 25.417 22.3125C27.1948 22.743 28.9448 23.3888 30.667 24.25C31.4725 24.6666 32.1184 25.2708 32.6045 26.0625C33.0906 26.8541 33.3337 27.7222 33.3337 28.6666V30C33.3337 30.9166 33.0073 31.7013 32.3545 32.3541C31.7017 33.0069 30.917 33.3333 30.0003 33.3333H10.0003C9.08366 33.3333 8.29894 33.0069 7.64616 32.3541C6.99338 31.7013 6.66699 30.9166 6.66699 30ZM10.0003 30H30.0003V28.6666C30.0003 28.3611 29.9239 28.0833 29.7712 27.8333C29.6184 27.5833 29.417 27.3888 29.167 27.25C27.667 26.5 26.1531 25.9375 24.6253 25.5625C23.0975 25.1875 21.5559 25 20.0003 25C18.4448 25 16.9031 25.1875 15.3753 25.5625C13.8475 25.9375 12.3337 26.5 10.8337 27.25C10.5837 27.3888 10.3823 27.5833 10.2295 27.8333C10.0767 28.0833 10.0003 28.3611 10.0003 28.6666V30ZM20.0003 16.6666C20.917 16.6666 21.7017 16.3402 22.3545 15.6875C23.0073 15.0347 23.3337 14.25 23.3337 13.3333C23.3337 12.4166 23.0073 11.6319 22.3545 10.9791C21.7017 10.3263 20.917 9.99996 20.0003 9.99996C19.0837 9.99996 18.2989 10.3263 17.6462 10.9791C16.9934 11.6319 16.667 12.4166 16.667 13.3333C16.667 14.25 16.9934 15.0347 17.6462 15.6875C18.2989 16.3402 19.0837 16.6666 20.0003 16.6666Z" fill="#7B7B7B"/>
</svg>
