<svg width="32" height="32" viewBox="0 0 32 32" fill="none" xmlns="http://www.w3.org/2000/svg">
<path d="M12.6495 15.9837L22.4495 25.7837C22.7828 26.1171 22.9439 26.5115 22.9328 26.9671C22.9217 27.4226 22.7495 27.8171 22.4161 28.1504C22.0828 28.4837 21.6884 28.6504 21.2328 28.6504C20.7773 28.6504 20.3828 28.4837 20.0495 28.1504L9.81614 17.8837C9.54948 17.6171 9.34948 17.3171 9.21614 16.9837C9.08281 16.6504 9.01614 16.3171 9.01614 15.9837C9.01614 15.6504 9.08281 15.3171 9.21614 14.9837C9.34948 14.6504 9.54948 14.3504 9.81614 14.0837L20.0828 3.81706C20.4161 3.48372 20.805 3.32261 21.2495 3.33372C21.6939 3.34483 22.0828 3.51706 22.4161 3.85039C22.7495 4.18372 22.9161 4.57817 22.9161 5.03372C22.9161 5.48928 22.7495 5.88372 22.4161 6.21706L12.6495 15.9837Z" fill="#7B7B7B"/>
</svg>
