<svg width="44" height="44" viewBox="0 0 44 44" fill="none" xmlns="http://www.w3.org/2000/svg">
<path d="M26.9423 8.60807C26.9423 7.63957 27.7275 6.85445 28.6961 6.85445H31.3742C34.5189 6.85445 37.1454 9.48096 37.1454 12.6255V15.3037C37.1454 16.2722 36.3602 17.0574 35.3916 17.0574C34.4232 17.0574 33.638 16.2722 33.638 15.3037V12.6255C33.638 11.4179 32.5818 10.3617 31.3742 10.3617H28.6961C27.7275 10.3617 26.9423 9.57656 26.9423 8.60807Z" fill="#7B7B7B"/>
<path d="M10.3627 12.6255C10.3627 11.4179 11.4189 10.3617 12.6265 10.3617H15.3047C16.2732 10.3617 17.0584 9.57656 17.0584 8.60807C17.0584 7.63957 16.2732 6.85445 15.3047 6.85445H12.6265C9.48185 6.85445 6.85547 9.48096 6.85547 12.6255V15.3037C6.85547 16.2722 7.64059 17.0574 8.60909 17.0574C9.57758 17.0574 10.3627 16.2722 10.3627 15.3037V12.6255Z" fill="#7B7B7B"/>
<path d="M8.60909 26.9423C9.57758 26.9423 10.3627 27.7275 10.3627 28.6959V31.3742C10.3627 32.5818 11.4189 33.638 12.6265 33.638H15.3047C16.2732 33.638 17.0584 34.423 17.0584 35.3916C17.0584 36.3601 16.2732 37.1452 15.3047 37.1452H12.6265C9.48185 37.1452 6.85547 34.5187 6.85547 31.3742V28.6959C6.85547 27.7275 7.64059 26.9423 8.60909 26.9423Z" fill="#7B7B7B"/>
<path d="M37.1454 28.6959C37.1454 27.7275 36.3602 26.9423 35.3916 26.9423C34.4232 26.9423 33.638 27.7275 33.638 28.6959V31.3742C33.638 32.5818 32.5818 33.638 31.3742 33.638H28.6961C27.7275 33.638 26.9423 34.423 26.9423 35.3916C26.9423 36.3601 27.7275 37.1452 28.6961 37.1452H31.3742C34.5189 37.1452 37.1454 34.5187 37.1454 31.3742V28.6959Z" fill="#7B7B7B"/>
<path d="M9.53369 22C9.53369 21.0314 10.3188 20.2464 11.2873 20.2464H32.7133C33.6818 20.2464 34.4671 21.0314 34.4671 22C34.4671 22.9685 33.6818 23.7536 32.7133 23.7536H11.2873C10.3188 23.7536 9.53369 22.9685 9.53369 22Z" fill="#7B7B7B"/>
</svg>
