<svg width="300" height="35" viewBox="0 0 300 35" fill="none" xmlns="http://www.w3.org/2000/svg">
<path d="M124.36 0.288818V34.0885H117.637V19.9445H102.169V34.0885H95.4703V0.288818H102.169V14.5853H117.637V0.288818H124.36ZM49.6847 0.288818H46.8206L32.2674 34.0885H39.3033L49.5162 9.6754H49.8532L59.9698 34.0885H67.094L52.5408 0.288818H49.6767H49.6847ZM66.0591 26.6836L66.1313 26.852C66.6126 28.0875 69.3965 34.5458 78.5504 34.8988C93.224 35.4524 92.9592 26.0979 92.9592 24.1805C92.863 22.6321 92.3495 21.1318 91.475 19.8482C90.6005 18.5565 89.3971 17.5216 87.9771 16.8397C82.4735 13.9676 73.111 14.3125 73.111 8.77685C73.111 7.07604 74.6434 4.66922 79.1842 4.61306C83.5807 4.53284 85.8832 7.34881 86.1961 8.95336L91.2103 7.49322C90.3198 5.55975 88.4424 0.144409 78.9435 0.144409C77.2588 0.104296 75.574 0.336953 73.9614 0.826339C68.0728 2.79993 67.0298 7.28463 67.0298 9.52297C67.11 22.4716 86.5731 19.1021 86.3565 25.793C86.2843 28.24 83.8454 30.1895 78.9676 29.9729C73.9053 29.7643 72.1724 26.6916 71.346 24.9025L66.0671 26.6836H66.0591ZM17.5296 5.17466C21.9261 5.08641 24.5415 7.33277 25.0229 8.83301L30.3901 7.3809C29.4995 5.4715 26.4108 0.393113 17.7142 0C1.24352 0 0 15.2672 0 16.8156C0 32.8851 12.0902 34.6742 16.7915 34.8828C21.4126 35.0432 26.0337 34.7544 30.5986 34.0243V14.5933H13.6065V19.9605H24.2206C24.2206 19.9605 24.2687 19.9685 24.2928 19.9846C24.3088 20.0006 24.3249 20.0247 24.3249 20.0568V29.4755C24.3249 29.4755 24.3088 29.5316 24.2928 29.5557C24.2767 29.5798 24.2527 29.5958 24.2286 29.6038C22.1106 29.9488 19.9525 30.0852 17.8024 29.9969C16.3102 29.9488 6.98779 29.5798 6.98779 17.5136C6.98779 9.75563 10.9109 5.23884 17.5296 5.19872" fill="#E72E6B"/>
<path d="M145.982 4.13972H134.862V0.288818H161.57V4.13972H150.45V34.0885H145.974V4.13972H145.982Z" fill="#4C4C4C"/>
<path d="M169.938 21.9181C169.938 14.3125 174.462 9.21008 181.587 9.21008C187.652 9.21008 191.743 12.2908 192.417 18.0672H188.133C187.459 14.6976 185.293 12.7722 181.587 12.7722C176.966 12.7722 174.27 16.4305 174.27 21.9181C174.27 27.4056 177.158 31.2084 181.635 31.2084C185.438 31.2084 187.652 28.8497 188.133 25.4801H192.417C191.888 31.1121 187.604 34.7223 181.779 34.7223C174.511 34.7223 169.938 29.5236 169.938 21.9261V21.9181Z" fill="#4C4C4C"/>
<path d="M195.65 0.296843H199.79V20.7548L211.728 9.82783H217.312L207.011 19.1663L217.986 34.0805H212.979L203.978 21.91L199.79 25.6647V34.0885H195.65V0.296843Z" fill="#4C4C4C"/>
<path d="M218.692 21.8218C218.692 14.3607 223.12 9.21008 230.293 9.21008C236.983 9.21008 241.605 13.9274 241.605 21.3886C241.605 21.8218 241.605 22.3994 241.508 23.0252H222.984C223.225 27.7426 225.872 31.3528 230.686 31.3528C234.151 31.3528 236.462 29.5717 237.088 26.5391H241.276C240.698 31.3046 236.414 34.7223 230.493 34.7223C223.273 34.7223 218.7 29.4755 218.7 21.8298L218.692 21.8218ZM237.216 19.6557C236.879 14.9864 234.328 12.4833 230.333 12.4833C225.567 12.4833 223.449 15.9492 223.064 19.6557H237.216Z" fill="#4C4C4C"/>
<path d="M246.635 26.4348V13.2936H242.254V9.82783H246.635V3.18502H250.919V9.82783H257.321V13.2936H250.919V25.6647C250.919 29.4674 252.267 30.7671 254.866 30.7671C256.166 30.7671 256.84 30.6227 257.321 30.4783V34.0404C256.599 34.1848 255.733 34.3292 254.048 34.3292C249.619 34.3292 246.635 32.0668 246.635 26.4348Z" fill="#4C4C4C"/>
<path d="M166.672 7.09208H162.428V11.3361H166.672V7.09208Z" fill="#4C4C4C"/>
<path d="M166.672 14.1441H162.436V34.0885H166.672V14.1441Z" fill="#4C4C4C"/>
<path d="M270.976 19.9204C267.309 19.2625 264.959 18.6528 264.959 16.254C264.959 13.8552 267.165 12.7321 270.077 12.7321C272.404 12.7321 274.289 13.3257 275.019 15.6363L278.942 14.497C277.803 11.0393 274.313 9.49088 270.077 9.49088C264.911 9.49088 260.915 12.2186 260.915 16.591C260.915 20.9634 264.301 22.6562 268.906 23.4023C273.046 24.0601 275.629 24.5736 275.629 27.4939C275.629 29.9809 272.572 31.1121 269.331 31.1121C266.467 31.1121 265.352 30.0371 264.509 27.6222L260.546 28.7695C261.726 32.3556 265.175 34.4495 270.077 34.4495C275.813 34.4495 279.761 31.8181 279.761 27.0205C279.761 22.2229 276.046 20.819 270.976 19.9204Z" fill="#4C4C4C"/>
<path d="M286.258 1.96566C286.162 2.64759 285.657 3.17709 284.935 3.4659C285.761 3.69054 286.186 4.29224 286.058 5.20683C285.889 6.3942 284.903 7.12427 283.579 7.12427H280.53L281.493 0.28891H284.493C285.849 0.28891 286.411 0.962821 286.267 1.96566H286.258ZM281.854 3.93122L281.509 6.40222H283.595C284.51 6.40222 285.047 5.97702 285.167 5.16672C285.288 4.34038 284.83 3.9232 283.852 3.9232H281.862L281.854 3.93122ZM282.263 1.01096L281.95 3.2172H283.699C284.598 3.2172 285.232 2.83211 285.336 2.07798C285.432 1.39605 285.103 1.01096 284.229 1.01096H282.255H282.263Z" fill="#4C4C4C"/>
<path d="M286.964 4.66931C287.173 3.17709 288.2 2.15018 289.636 2.15018C290.976 2.15018 291.762 3.09686 291.553 4.58909C291.545 4.67734 291.521 4.78966 291.489 4.91802H287.783C287.703 5.85668 288.128 6.58674 289.09 6.58674C289.78 6.58674 290.294 6.23374 290.503 5.62402H291.337C291.088 6.57872 290.133 7.26065 288.954 7.26065C287.51 7.26065 286.748 6.20968 286.956 4.67734L286.964 4.66931ZM287.895 4.23608H290.727C290.791 3.30545 290.35 2.80002 289.556 2.80002C288.601 2.80002 288.08 3.48997 287.903 4.23608H287.895Z" fill="#4C4C4C"/>
<path d="M295.597 5.81656C295.717 4.95011 296.536 4.35643 298.012 4.13179L299.119 3.97134L299.159 3.68252C299.239 3.12093 298.846 2.81607 298.1 2.81607C297.394 2.81607 296.905 3.08884 296.768 3.63438H295.934C296.07 2.72781 296.977 2.15018 298.204 2.15018C299.432 2.15018 300.138 2.68771 299.977 3.82693L299.512 7.12427H298.758L298.87 6.322C298.525 6.80336 297.875 7.18845 297.033 7.18845C296.118 7.18845 295.461 6.7151 295.589 5.80854L295.597 5.81656ZM297.346 6.53861C298.164 6.53861 298.846 5.95295 298.975 4.99825L299.031 4.59711L298.044 4.75756C297.033 4.91802 296.536 5.27904 296.471 5.76843C296.399 6.30595 296.776 6.53861 297.346 6.53861Z" fill="#4C4C4C"/>
<path d="M294.289 0.954797L293.399 1.19547L293.246 2.27855H292.372L292.276 2.9685H293.15L292.781 5.59995C292.621 6.72313 293.158 7.18043 294.041 7.18043C294.377 7.18043 294.554 7.14834 294.706 7.12427L294.803 6.41024C294.706 6.44233 294.562 6.4664 294.305 6.4664C293.784 6.4664 293.551 6.20967 293.663 5.44752L294.008 2.97652H295.284L295.38 2.28656H294.105L294.289 0.962821V0.954797Z" fill="#4C4C4C"/>
</svg>
