<svg width="44" height="44" viewBox="0 0 44 44" fill="none" xmlns="http://www.w3.org/2000/svg">
<path d="M29.3337 20.1667C29.3337 19.1541 28.5128 18.3333 27.5003 18.3333C26.4878 18.3333 25.667 19.1541 25.667 20.1667V23.8333C25.667 24.8459 26.4878 25.6667 27.5003 25.6667C28.5128 25.6667 29.3337 24.8459 29.3337 23.8333V20.1667Z" fill="#7B7B7B"/>
<path fill-rule="evenodd" clip-rule="evenodd" d="M4.74408 35.5896C5.46213 36.3076 6.32533 36.6667 7.33366 36.6667H36.667C37.6753 36.6667 38.5385 36.3076 39.2566 35.5896C39.9746 34.8715 40.3337 34.0083 40.3337 33V26.8125C40.3337 26.4764 40.2267 26.1861 40.0128 25.9417C39.7989 25.6972 39.5239 25.5444 39.1878 25.4833C38.4545 25.2389 37.851 24.7958 37.3774 24.1542C36.9038 23.5125 36.667 22.7944 36.667 22C36.667 21.2056 36.9038 20.4875 37.3774 19.8458C37.851 19.2042 38.4545 18.7611 39.1878 18.5167C39.5239 18.4556 39.7989 18.3028 40.0128 18.0583C40.2267 17.8139 40.3337 17.5236 40.3337 17.1875V11C40.3337 9.99167 39.9746 9.12847 39.2566 8.41042C38.5385 7.69236 37.6753 7.33333 36.667 7.33333H7.33366C6.32533 7.33333 5.46213 7.69236 4.74408 8.41042C4.02602 9.12847 3.66699 9.99167 3.66699 11V17.1875C3.66699 17.5236 3.77394 17.8139 3.98783 18.0583C4.20171 18.3028 4.47671 18.4556 4.81283 18.5167C5.54616 18.7611 6.14963 19.2042 6.62324 19.8458C7.09685 20.4875 7.33366 21.2056 7.33366 22C7.33366 22.7944 7.09685 23.5125 6.62324 24.1542C6.14963 24.7958 5.54616 25.2389 4.81283 25.4833C4.47671 25.5444 4.20171 25.6972 3.98783 25.9417C3.77394 26.1861 3.66699 26.4764 3.66699 26.8125V33C3.66699 34.0083 4.02602 34.8715 4.74408 35.5896ZM29.3337 29.3333V33H36.667V28.325C35.5364 27.6528 34.6427 26.759 33.9857 25.6438C33.3288 24.5285 33.0003 23.3139 33.0003 22C33.0003 20.6861 33.3288 19.4715 33.9857 18.3563C34.6427 17.241 35.5364 16.3472 36.667 15.675V11H29.3337V14.6667C29.3337 15.6792 28.5128 16.5 27.5003 16.5C26.4878 16.5 25.667 15.6792 25.667 14.6667V11H7.33366V15.675C8.46421 16.3472 9.35796 17.241 10.0149 18.3563C10.6719 19.4715 11.0003 20.6861 11.0003 22C11.0003 23.3139 10.6719 24.5285 10.0149 25.6438C9.35796 26.759 8.46421 27.6528 7.33366 28.325V33H25.667V29.3333C25.667 28.3208 26.4878 27.5 27.5003 27.5C28.5128 27.5 29.3337 28.3208 29.3337 29.3333Z" fill="#7B7B7B"/>
</svg>
