<svg width="44" height="44" viewBox="0 0 44 44" fill="none" xmlns="http://www.w3.org/2000/svg">
<path d="M21.9999 23.0996L29.1499 15.9496C29.486 15.6135 29.9138 15.4455 30.4332 15.4455C30.9527 15.4455 31.3805 15.6135 31.7166 15.9496C32.0527 16.2858 32.2207 16.7135 32.2207 17.233C32.2207 17.7524 32.0527 18.1802 31.7166 18.5163L23.2832 26.9496C23.0999 27.133 22.9013 27.2628 22.6874 27.3392C22.4735 27.4156 22.2444 27.4538 21.9999 27.4538C21.7555 27.4538 21.5263 27.4156 21.3124 27.3392C21.0985 27.2628 20.8999 27.133 20.7166 26.9496L12.2832 18.5163C11.9471 18.1802 11.7791 17.7524 11.7791 17.233C11.7791 16.7135 11.9471 16.2858 12.2832 15.9496C12.6194 15.6135 13.0471 15.4455 13.5666 15.4455C14.086 15.4455 14.5138 15.6135 14.8499 15.9496L21.9999 23.0996Z" fill="#7B7B7B"/>
</svg>
