<svg width="44" height="44" viewBox="0 0 44 44" fill="none" xmlns="http://www.w3.org/2000/svg">
<path d="M21.9997 22C19.983 22 18.2566 21.2819 16.8205 19.8458C15.3844 18.4097 14.6663 16.6833 14.6663 14.6667C14.6663 12.65 15.3844 10.9236 16.8205 9.4875C18.2566 8.05139 19.983 7.33333 21.9997 7.33333C24.0163 7.33333 25.7427 8.05139 27.1788 9.4875C28.615 10.9236 29.333 12.65 29.333 14.6667C29.333 16.6833 28.615 18.4097 27.1788 19.8458C25.7427 21.2819 24.0163 22 21.9997 22ZM7.33301 33V31.5333C7.33301 30.4944 7.60037 29.5396 8.13509 28.6687C8.66981 27.7979 9.38023 27.1333 10.2663 26.675C12.1608 25.7278 14.0858 25.0174 16.0413 24.5437C17.9969 24.0701 19.983 23.8333 21.9997 23.8333C24.0163 23.8333 26.0025 24.0701 27.958 24.5437C29.9136 25.0174 31.8386 25.7278 33.733 26.675C34.6191 27.1333 35.3295 27.7979 35.8643 28.6687C36.399 29.5396 36.6663 30.4944 36.6663 31.5333V33C36.6663 34.0083 36.3073 34.8715 35.5893 35.5896C34.8712 36.3076 34.008 36.6667 32.9997 36.6667H10.9997C9.99134 36.6667 9.12815 36.3076 8.41009 35.5896C7.69204 34.8715 7.33301 34.0083 7.33301 33ZM10.9997 33H32.9997V31.5333C32.9997 31.1972 32.9156 30.8917 32.7476 30.6167C32.5795 30.3417 32.358 30.1278 32.083 29.975C30.433 29.15 28.7677 28.5312 27.0872 28.1187C25.4066 27.7062 23.7108 27.5 21.9997 27.5C20.2886 27.5 18.5927 27.7062 16.9122 28.1187C15.2316 28.5312 13.5663 29.15 11.9163 29.975C11.6413 30.1278 11.4198 30.3417 11.2518 30.6167C11.0837 30.8917 10.9997 31.1972 10.9997 31.5333V33ZM21.9997 18.3333C23.008 18.3333 23.8712 17.9743 24.5893 17.2562C25.3073 16.5382 25.6663 15.675 25.6663 14.6667C25.6663 13.6583 25.3073 12.7951 24.5893 12.0771C23.8712 11.359 23.008 11 21.9997 11C20.9913 11 20.1281 11.359 19.4101 12.0771C18.692 12.7951 18.333 13.6583 18.333 14.6667C18.333 15.675 18.692 16.5382 19.4101 17.2562C20.1281 17.9743 20.9913 18.3333 21.9997 18.3333Z" fill="#E72E6B"/>
</svg>
