<svg width="130" height="115" viewBox="0 0 130 115" fill="none" xmlns="http://www.w3.org/2000/svg">
<path fill-rule="evenodd" clip-rule="evenodd" d="M52.5 71.5C52.4219 72.0403 53 73.4038 53 73.4038C53 79.8765 58.3726 85.1236 65 85.1236C71.6274 85.1236 77 79.8765 77 73.4038C77 72.8425 76.9596 72.0403 76.8815 71.5H106V97.8201C106 99.4382 104.657 100.75 103 100.75H27C25.3431 100.75 24 99.4382 24 97.8201V71.5H52.5Z" fill="white"/>
<path fill-rule="evenodd" clip-rule="evenodd" d="M78 72.25C78 79.4297 72.1797 85.25 65 85.25C57.8203 85.25 52 79.4297 52 72.25C52 72.0174 52.0061 71.7862 52.0182 71.5566H24L33.5604 43.2889C33.9726 42.0702 35.1159 41.25 36.4023 41.25H93.5977C94.8842 41.25 96.0274 42.0702 96.4396 43.2889L106 71.5566H77.9818C77.9939 71.7862 78 72.0174 78 72.25Z" fill="white"/>
<path fill-rule="evenodd" clip-rule="evenodd" d="M76.5 73.5C76.5 79.048 71.129 84.25 65 84.25C58.871 84.25 53.2029 78.878 53.2029 73.3301C53.2029 73.1503 53.1926 71.8462 53.2029 71.6688H33L41.1614 51.8255C41.5132 50.8838 42.4891 50.25 43.5873 50.25H86.4127C87.5109 50.25 88.4868 50.8838 88.8387 51.8255L97 71.6688H76.5C76.5103 71.8462 76.5 73.3203 76.5 73.5Z" fill="#E5E5E5"/>
<path d="M30.5737 70C29.8834 70 29.3237 70.5596 29.3237 71.25C29.3237 71.9404 29.8834 72.5 30.5737 72.5H33C33.6904 72.5 34.25 71.9404 34.25 71.25C34.25 70.5596 33.6904 70 33 70H30.5737Z" fill="#CACACA"/>
<path fill-rule="evenodd" clip-rule="evenodd" d="M36.4023 41.25C35.1158 41.25 33.9726 42.0702 33.5604 43.2889L24 71.5566V98.25C24 99.9069 25.3431 101.25 27 101.25H103C104.657 101.25 106 99.9069 106 98.25V71.5566L96.4396 43.2889C96.0274 42.0702 94.8842 41.25 93.5977 41.25H36.4023ZM35.9287 44.0898C35.9974 43.8867 36.1879 43.75 36.4023 43.75H93.5977C93.8121 43.75 94.0026 43.8867 94.0713 44.0898L102.834 70H79.0496C77.777 70 76.8279 70.4806 76.3198 71.3793C75.9191 72.088 75.922 72.878 75.9232 73.2041L75.9234 73.25C75.9234 79.1604 71.0138 84 64.8973 84C58.7808 84 53.8712 79.1604 53.8712 73.25L53.8713 73.2041C53.8725 72.878 53.8755 72.088 53.4748 71.3793C52.9667 70.4806 52.0175 70 50.7449 70H38C37.3096 70 36.75 70.5596 36.75 71.25C36.75 71.9404 37.3096 72.5 38 72.5H50.7449C51.0717 72.5 51.2176 72.5577 51.2627 72.5807C51.2909 72.5951 51.2941 72.6013 51.2974 72.6075L51.2985 72.6097C51.3116 72.6327 51.3365 72.6926 51.3529 72.8156C51.3697 72.9415 51.3712 73.073 51.3712 73.25C51.3712 80.5944 57.454 86.5 64.8973 86.5C72.3406 86.5 78.4234 80.5944 78.4234 73.25C78.4234 73.073 78.4248 72.9415 78.4417 72.8156C78.4581 72.6926 78.483 72.6327 78.496 72.6097L78.4972 72.6075C78.5004 72.6013 78.5037 72.5951 78.5318 72.5807C78.577 72.5577 78.7228 72.5 79.0496 72.5H103.5V98.25C103.5 98.5261 103.276 98.75 103 98.75H27C26.7239 98.75 26.5 98.5261 26.5 98.25V71.9679L35.9287 44.0898Z" fill="#CACACA"/>
<path fill-rule="evenodd" clip-rule="evenodd" d="M64.0996 13C64.79 13 65.3496 13.5596 65.3496 14.25V31.0059C65.3496 31.6962 64.79 32.2559 64.0996 32.2559C63.4093 32.2559 62.8496 31.6962 62.8496 31.0059V14.25C62.8496 13.5596 63.4093 13 64.0996 13ZM37.1683 17.6196C37.6837 17.1603 38.4738 17.2057 38.9332 17.721L50.0328 30.1741C50.4921 30.6895 50.4467 31.4797 49.9313 31.939C49.416 32.3983 48.6258 32.3529 48.1665 31.8376L37.0669 19.3845C36.6075 18.8691 36.6529 18.0789 37.1683 17.6196ZM90.9313 17.6196C91.4467 18.0789 91.4921 18.8691 91.0328 19.3845L79.9332 31.8376C79.4738 32.3529 78.6837 32.3983 78.1683 31.939C77.6529 31.4797 77.6075 30.6895 78.0669 30.1741L89.1665 17.721C89.6258 17.2057 90.416 17.1603 90.9313 17.6196Z" fill="#E5E5E5"/>
</svg>
