<svg width="44" height="44" viewBox="0 0 44 44" fill="none" xmlns="http://www.w3.org/2000/svg">
<path d="M27.8212 15.2625C28.7073 16.1486 29.3566 17.157 29.7691 18.2875C30.1816 19.4181 30.3267 20.5792 30.2045 21.7708C30.2045 22.2292 30.0364 22.6188 29.7003 22.9396C29.3642 23.2604 28.967 23.4208 28.5087 23.4208C28.0503 23.4208 27.6607 23.2604 27.3399 22.9396C27.0191 22.6188 26.8587 22.2292 26.8587 21.7708C27.0114 20.9764 26.9656 20.2125 26.7212 19.4792C26.4767 18.7458 26.0948 18.1195 25.5753 17.6C25.0559 17.0806 24.4295 16.6833 23.6962 16.4083C22.9628 16.1333 22.1837 16.0722 21.3587 16.225C20.9003 16.225 20.5107 16.057 20.1899 15.7208C19.8691 15.3847 19.7087 14.9875 19.7087 14.5292C19.7087 14.0708 19.8691 13.6813 20.1899 13.3604C20.5107 13.0396 20.9003 12.8792 21.3587 12.8792C22.5198 12.757 23.6656 12.9021 24.7962 13.3146C25.9267 13.7271 26.935 14.3764 27.8212 15.2625ZM22.0003 11C21.4198 11 20.8545 11.0229 20.3045 11.0688C19.7545 11.1146 19.2045 11.1986 18.6545 11.3208C18.135 11.4125 17.6691 11.3361 17.2566 11.0917C16.8441 10.8472 16.5614 10.4806 16.4087 9.99167C16.2559 9.50278 16.3094 9.02917 16.5691 8.57084C16.8288 8.11251 17.2031 7.83751 17.692 7.74584C18.3948 7.59306 19.1052 7.48612 19.8232 7.42501C20.5413 7.3639 21.267 7.33334 22.0003 7.33334C26.1864 7.33334 30.0135 8.43334 33.4816 10.6333C36.9496 12.8333 39.6003 15.7972 41.4337 19.525C41.5559 19.7695 41.6475 20.0215 41.7087 20.2813C41.7698 20.541 41.8003 20.8083 41.8003 21.0833C41.8003 21.3583 41.7774 21.6257 41.7316 21.8854C41.6857 22.1451 41.6017 22.3972 41.4795 22.6417C40.9295 23.8639 40.2496 25.0097 39.4399 26.0792C38.6302 27.1486 37.7364 28.1264 36.7587 29.0125C36.392 29.3486 35.9642 29.4861 35.4753 29.425C34.9864 29.3639 34.5892 29.1195 34.2837 28.6917C33.9781 28.2639 33.8482 27.7979 33.8941 27.2938C33.9399 26.7896 34.1462 26.3695 34.5128 26.0333C35.2462 25.3306 35.9184 24.5667 36.5295 23.7417C37.1406 22.9167 37.6753 22.0306 38.1337 21.0833C36.6059 17.9972 34.3982 15.5451 31.5107 13.7271C28.6232 11.909 25.4531 11 22.0003 11ZM22.0003 34.8333C17.9059 34.8333 14.1628 33.7257 10.7712 31.5104C7.37949 29.2951 4.70588 26.3847 2.75033 22.7792C2.59755 22.5347 2.48296 22.2674 2.40658 21.9771C2.33019 21.6868 2.29199 21.3889 2.29199 21.0833C2.29199 20.7778 2.32255 20.4875 2.38366 20.2125C2.44477 19.9375 2.55171 19.6625 2.70449 19.3875C3.3156 18.1653 4.02602 16.9965 4.83574 15.8813C5.64546 14.766 6.56977 13.75 7.60866 12.8333L3.80449 8.98334C3.46838 8.61667 3.30796 8.18126 3.32324 7.67709C3.33852 7.17292 3.51421 6.75278 3.85033 6.41667C4.18644 6.08056 4.61421 5.91251 5.13366 5.91251C5.6531 5.91251 6.08088 6.08056 6.41699 6.41667L37.5837 37.5833C37.9198 37.9195 38.0955 38.3396 38.1107 38.8438C38.126 39.3479 37.9503 39.7833 37.5837 40.15C37.2475 40.4861 36.8198 40.6542 36.3003 40.6542C35.7809 40.6542 35.3531 40.4861 35.017 40.15L28.6003 33.825C27.5309 34.1611 26.4462 34.4132 25.3462 34.5813C24.2462 34.7493 23.1309 34.8333 22.0003 34.8333ZM10.1753 15.4C9.28921 16.1945 8.47949 17.0653 7.74616 18.0125C7.01283 18.9597 6.38644 19.9833 5.86699 21.0833C7.39477 24.1695 9.60241 26.6215 12.4899 28.4396C15.3774 30.2576 18.5475 31.1667 22.0003 31.1667C22.6114 31.1667 23.2073 31.1285 23.7878 31.0521C24.3684 30.9757 24.9642 30.8917 25.5753 30.8L23.9253 29.0583C23.5892 29.15 23.2684 29.2188 22.9628 29.2646C22.6573 29.3104 22.3364 29.3333 22.0003 29.3333C19.7087 29.3333 17.7607 28.5313 16.1566 26.9271C14.5524 25.3229 13.7503 23.375 13.7503 21.0833C13.7503 20.7472 13.7732 20.4264 13.8191 20.1208C13.8649 19.8153 13.9337 19.4945 14.0253 19.1583L10.1753 15.4Z" fill="#7B7B7B"/>
</svg>
