<svg width="45" height="44" viewBox="0 0 45 44" fill="none" xmlns="http://www.w3.org/2000/svg">
<path d="M29.8337 20.1667C29.8337 19.1542 29.0128 18.3333 28.0003 18.3333C26.9878 18.3333 26.167 19.1542 26.167 20.1667V23.8333C26.167 24.8459 26.9878 25.6667 28.0003 25.6667C29.0128 25.6667 29.8337 24.8459 29.8337 23.8333V20.1667Z" fill="#7B7B7B"/>
<path fill-rule="evenodd" clip-rule="evenodd" d="M5.24408 35.5896C5.96213 36.3076 6.82533 36.6667 7.83366 36.6667H37.167C38.1753 36.6667 39.0385 36.3076 39.7566 35.5896C40.4746 34.8715 40.8337 34.0083 40.8337 33V26.8125C40.8337 26.4764 40.7267 26.1861 40.5128 25.9417C40.2989 25.6972 40.0239 25.5445 39.6878 25.4833C38.9545 25.2389 38.351 24.7958 37.8774 24.1542C37.4038 23.5125 37.167 22.7945 37.167 22C37.167 21.2056 37.4038 20.4875 37.8774 19.8458C38.351 19.2042 38.9545 18.7611 39.6878 18.5167C40.0239 18.4556 40.2989 18.3028 40.5128 18.0583C40.7267 17.8139 40.8337 17.5236 40.8337 17.1875V11C40.8337 9.99168 40.4746 9.12848 39.7566 8.41043C39.0385 7.69237 38.1753 7.33334 37.167 7.33334H7.83366C6.82533 7.33334 5.96213 7.69237 5.24408 8.41043C4.52602 9.12848 4.16699 9.99168 4.16699 11V17.1875C4.16699 17.5236 4.27394 17.8139 4.48783 18.0583C4.70171 18.3028 4.97671 18.4556 5.31283 18.5167C6.04616 18.7611 6.64963 19.2042 7.12324 19.8458C7.59685 20.4875 7.83366 21.2056 7.83366 22C7.83366 22.7945 7.59685 23.5125 7.12324 24.1542C6.64963 24.7958 6.04616 25.2389 5.31283 25.4833C4.97671 25.5445 4.70171 25.6972 4.48783 25.9417C4.27394 26.1861 4.16699 26.4764 4.16699 26.8125V33C4.16699 34.0083 4.52602 34.8715 5.24408 35.5896ZM29.8337 29.3333V33H37.167V28.325C36.0364 27.6528 35.1427 26.759 34.4857 25.6438C33.8288 24.5285 33.5003 23.3139 33.5003 22C33.5003 20.6861 33.8288 19.4715 34.4857 18.3563C35.1427 17.241 36.0364 16.3472 37.167 15.675V11H29.8337V14.6667C29.8337 15.6792 29.0128 16.5 28.0003 16.5C26.9878 16.5 26.167 15.6792 26.167 14.6667V11H7.83366V15.675C8.96421 16.3472 9.85796 17.241 10.5149 18.3563C11.1719 19.4715 11.5003 20.6861 11.5003 22C11.5003 23.3139 11.1719 24.5285 10.5149 25.6438C9.85796 26.759 8.96421 27.6528 7.83366 28.325V33H26.167V29.3333C26.167 28.3208 26.9878 27.5 28.0003 27.5C29.0128 27.5 29.8337 28.3208 29.8337 29.3333Z" fill="#7B7B7B"/>
</svg>
