<svg width="28" height="28" viewBox="0 0 28 28" fill="none" xmlns="http://www.w3.org/2000/svg">
<path d="M12.3668 16.1002L9.8585 13.5918C9.64461 13.3779 9.37238 13.271 9.04183 13.271C8.71127 13.271 8.43905 13.3779 8.22516 13.5918C8.01127 13.8057 7.90433 14.0779 7.90433 14.4085C7.90433 14.739 8.01127 15.0113 8.22516 15.2252L11.5502 18.5502C11.7835 18.7835 12.0557 18.9002 12.3668 18.9002C12.6779 18.9002 12.9502 18.7835 13.1835 18.5502L19.7752 11.9585C19.989 11.7446 20.096 11.4724 20.096 11.1418C20.096 10.8113 19.989 10.5391 19.7752 10.3252C19.5613 10.1113 19.289 10.0043 18.9585 10.0043C18.6279 10.0043 18.3557 10.1113 18.1418 10.3252L12.3668 16.1002ZM14.0002 25.6668C12.3863 25.6668 10.8696 25.3606 9.45016 24.7481C8.03072 24.1356 6.796 23.3043 5.746 22.2543C4.696 21.2043 3.86475 19.9696 3.25225 18.5502C2.63975 17.1307 2.3335 15.614 2.3335 14.0002C2.3335 12.3863 2.63975 10.8696 3.25225 9.45016C3.86475 8.03072 4.696 6.796 5.746 5.746C6.796 4.696 8.03072 3.86475 9.45016 3.25225C10.8696 2.63975 12.3863 2.3335 14.0002 2.3335C15.614 2.3335 17.1307 2.63975 18.5502 3.25225C19.9696 3.86475 21.2043 4.696 22.2543 5.746C23.3043 6.796 24.1356 8.03072 24.7481 9.45016C25.3606 10.8696 25.6668 12.3863 25.6668 14.0002C25.6668 15.614 25.3606 17.1307 24.7481 18.5502C24.1356 19.9696 23.3043 21.2043 22.2543 22.2543C21.2043 23.3043 19.9696 24.1356 18.5502 24.7481C17.1307 25.3606 15.614 25.6668 14.0002 25.6668ZM14.0002 23.3335C16.6057 23.3335 18.8127 22.4293 20.621 20.621C22.4293 18.8127 23.3335 16.6057 23.3335 14.0002C23.3335 11.3946 22.4293 9.18766 20.621 7.37933C18.8127 5.571 16.6057 4.66683 14.0002 4.66683C11.3946 4.66683 9.18766 5.571 7.37933 7.37933C5.571 9.18766 4.66683 11.3946 4.66683 14.0002C4.66683 16.6057 5.571 18.8127 7.37933 20.621C9.18766 22.4293 11.3946 23.3335 14.0002 23.3335Z" fill="#26BC7D"/>
</svg>
