<svg width="28" height="28" viewBox="0 0 28 28" fill="none" xmlns="http://www.w3.org/2000/svg">
<path d="M14.0002 15.6335L17.3835 19.0168C17.5974 19.2307 17.8696 19.3377 18.2002 19.3377C18.5307 19.3377 18.8029 19.2307 19.0168 19.0168C19.2307 18.8029 19.3377 18.5307 19.3377 18.2002C19.3377 17.8696 19.2307 17.5974 19.0168 17.3835L15.6335 14.0002L19.0168 10.6168C19.2307 10.4029 19.3377 10.1307 19.3377 9.80016C19.3377 9.46961 19.2307 9.19738 19.0168 8.9835C18.8029 8.76961 18.5307 8.66266 18.2002 8.66266C17.8696 8.66266 17.5974 8.76961 17.3835 8.9835L14.0002 12.3668L10.6168 8.9835C10.4029 8.76961 10.1307 8.66266 9.80016 8.66266C9.46961 8.66266 9.19738 8.76961 8.9835 8.9835C8.76961 9.19738 8.66266 9.46961 8.66266 9.80016C8.66266 10.1307 8.76961 10.4029 8.9835 10.6168L12.3668 14.0002L8.9835 17.3835C8.76961 17.5974 8.66266 17.8696 8.66266 18.2002C8.66266 18.5307 8.76961 18.8029 8.9835 19.0168C9.19738 19.2307 9.46961 19.3377 9.80016 19.3377C10.1307 19.3377 10.4029 19.2307 10.6168 19.0168L14.0002 15.6335ZM14.0002 25.6668C12.3863 25.6668 10.8696 25.3606 9.45016 24.7481C8.03072 24.1356 6.796 23.3043 5.746 22.2543C4.696 21.2043 3.86475 19.9696 3.25225 18.5502C2.63975 17.1307 2.3335 15.6141 2.3335 14.0002C2.3335 12.3863 2.63975 10.8696 3.25225 9.45016C3.86475 8.03072 4.696 6.796 5.746 5.746C6.796 4.696 8.03072 3.86475 9.45016 3.25225C10.8696 2.63975 12.3863 2.3335 14.0002 2.3335C15.6141 2.3335 17.1307 2.63975 18.5502 3.25225C19.9696 3.86475 21.2043 4.696 22.2543 5.746C23.3043 6.796 24.1356 8.03072 24.7481 9.45016C25.3606 10.8696 25.6668 12.3863 25.6668 14.0002C25.6668 15.6141 25.3606 17.1307 24.7481 18.5502C24.1356 19.9696 23.3043 21.2043 22.2543 22.2543C21.2043 23.3043 19.9696 24.1356 18.5502 24.7481C17.1307 25.3606 15.6141 25.6668 14.0002 25.6668ZM14.0002 23.3335C16.6057 23.3335 18.8127 22.4293 20.621 20.621C22.4293 18.8127 23.3335 16.6057 23.3335 14.0002C23.3335 11.3946 22.4293 9.18766 20.621 7.37933C18.8127 5.571 16.6057 4.66683 14.0002 4.66683C11.3946 4.66683 9.18766 5.571 7.37933 7.37933C5.571 9.18766 4.66683 11.3946 4.66683 14.0002C4.66683 16.6057 5.571 18.8127 7.37933 20.621C9.18766 22.4293 11.3946 23.3335 14.0002 23.3335Z" fill="#C13515"/>
</svg>
