<svg width="44" height="44" viewBox="0 0 44 44" fill="none" xmlns="http://www.w3.org/2000/svg">
<path d="M11 34.8333H16.5V25.6667C16.5 25.1472 16.6757 24.7118 17.0271 24.3604C17.3785 24.009 17.8139 23.8333 18.3333 23.8333H25.6667C26.1861 23.8333 26.6215 24.009 26.9729 24.3604C27.3243 24.7118 27.5 25.1472 27.5 25.6667V34.8333H33V18.3333L22 10.0833L11 18.3333V34.8333ZM7.33333 34.8333V18.3333C7.33333 17.7528 7.4632 17.2028 7.72292 16.6833C7.98264 16.1639 8.34167 15.7361 8.8 15.4L19.8 7.15C20.4417 6.66111 21.175 6.41666 22 6.41666C22.825 6.41666 23.5583 6.66111 24.2 7.15L35.2 15.4C35.6583 15.7361 36.0174 16.1639 36.2771 16.6833C36.5368 17.2028 36.6667 17.7528 36.6667 18.3333V34.8333C36.6667 35.8417 36.3076 36.7049 35.5896 37.4229C34.8715 38.141 34.0083 38.5 33 38.5H25.6667C25.1472 38.5 24.7118 38.3243 24.3604 37.9729C24.009 37.6215 23.8333 37.1861 23.8333 36.6667V27.5H20.1667V36.6667C20.1667 37.1861 19.991 37.6215 19.6396 37.9729C19.2882 38.3243 18.8528 38.5 18.3333 38.5H11C9.99167 38.5 9.12847 38.141 8.41042 37.4229C7.69236 36.7049 7.33333 35.8417 7.33333 34.8333Z" fill="#E72E6B"/>
</svg>
