<svg width="44" height="44" viewBox="0 0 44 44" fill="none" xmlns="http://www.w3.org/2000/svg">
<path d="M17.393 21.9778L30.868 35.4528C31.3264 35.9112 31.5479 36.4535 31.5326 37.0799C31.5173 37.7063 31.2805 38.2487 30.8222 38.707C30.3639 39.1653 29.8215 39.3945 29.1951 39.3945C28.5687 39.3945 28.0264 39.1653 27.568 38.707L13.4972 24.5903C13.1305 24.2237 12.8555 23.8112 12.6722 23.3528C12.4889 22.8945 12.3972 22.4362 12.3972 21.9778C12.3972 21.5195 12.4889 21.0612 12.6722 20.6028C12.8555 20.1445 13.1305 19.732 13.4972 19.3653L27.6139 5.24866C28.0722 4.79033 28.6069 4.56881 29.218 4.58408C29.8291 4.59936 30.3639 4.83617 30.8222 5.2945C31.2805 5.75283 31.5097 6.29519 31.5097 6.92159C31.5097 7.54797 31.2805 8.09033 30.8222 8.54867L17.393 21.9778Z" fill="#7B7B7B"/>
</svg>
