<svg width="270" height="40" viewBox="0 0 270 40" fill="none" xmlns="http://www.w3.org/2000/svg">
<path d="M2.91488 0.571045H28.2829L27.7013 7.26428H9.66339L9.04208 14.3891H24.9384L24.3568 21.0823H8.46042L7.33016 34.0372H0L2.91488 0.571045Z" fill="#333333"/>
<path d="M31.1912 17.4037V17.3108C32.0306 7.79549 40.1804 0 50.4585 0C60.7365 0 67.4454 7.69589 66.6192 17.2112V17.3041C65.7798 26.8194 57.63 34.6149 47.3519 34.6149C37.0738 34.6149 30.365 26.919 31.1912 17.4037ZM58.9387 17.4037V17.3108C59.4477 11.5737 55.6735 6.79283 49.7711 6.79283C43.8686 6.79283 39.3674 11.4808 38.8716 17.2178V17.3108C38.3627 23.0478 42.1368 27.8287 48.0393 27.8287C53.9418 27.8287 58.443 23.1408 58.9387 17.4037Z" fill="#333333"/>
<path d="M80.3209 7.36383H70.1816L70.7699 0.577637H98.372L97.7838 7.36383H87.6445L85.3179 34.0438H77.9877L80.3143 7.36383H80.3209Z" fill="#333333"/>
<path d="M108.532 34.4754H113.092L115.221 9.97339H110.667L108.532 34.4754Z" fill="#999999"/>
<path d="M130.35 15.5311C127.528 15.5311 125.796 16.972 124.6 18.3731L124.811 15.9096H120.29L118.671 34.4754H123.192L124.104 24.0172C124.335 21.3279 125.988 19.6613 128.407 19.6613C130.826 19.6613 131.996 21.1819 131.752 23.9508L130.833 34.4754H135.321L136.352 22.6759C136.742 18.2071 134.495 15.5378 130.344 15.5378L130.35 15.5311Z" fill="#999999"/>
<path d="M148.514 23.3798C146.61 22.7756 144.647 22.158 144.753 20.9495V20.8831C144.846 19.907 145.857 19.2563 147.278 19.2563C148.699 19.2563 150.49 19.8738 152.162 20.9562L152.301 21.0425L154.39 17.7888L154.271 17.7025C152.374 16.3679 149.981 15.6042 147.694 15.6042C143.795 15.6042 140.86 17.9748 140.562 21.3612V21.4276C140.258 24.8473 142.935 26.0823 145.87 26.9057L146.174 26.9987C148.071 27.5963 149.704 28.1076 149.605 29.3028V29.3692C149.499 30.498 148.448 31.1687 146.789 31.1687C144.938 31.1687 142.982 30.4051 141.131 28.9575L140.999 28.8579L138.692 31.9588L138.804 32.0518C140.893 33.8314 143.576 34.8141 146.366 34.8141C150.622 34.8141 153.465 32.5565 153.782 28.9177V28.8513C154.106 25.1992 150.47 24.0106 148.514 23.3732V23.3798Z" fill="#999999"/>
<path d="M169.394 15.5311C166.915 15.5311 164.906 16.5139 163.102 18.6121L163.339 15.9096H158.818L156.723 39.9999H161.244L161.945 31.9588C163.379 33.911 165.269 34.8605 167.715 34.8605C171.985 34.8605 176.592 31.5537 177.141 25.2323V25.1659C177.696 18.8445 173.664 15.5378 169.401 15.5378L169.394 15.5311ZM172.58 25.2323C172.296 28.5192 169.976 30.903 167.061 30.903C164.146 30.903 162.143 28.4661 162.427 25.2323V25.1659C162.712 21.9322 165.131 19.4953 168.052 19.4953C170.974 19.4953 172.864 21.9322 172.586 25.1659V25.2323H172.58Z" fill="#999999"/>
<path d="M189.983 15.5312C184.834 15.5312 180.591 19.6812 180.108 25.1925V25.2589C179.619 30.8366 183.248 34.8871 188.74 34.8871C191.84 34.8871 194.411 33.7516 196.593 31.4077L196.712 31.2815L194.246 28.8977L194.127 29.004C192.68 30.2789 191.278 31.1354 189.143 31.1354C186.453 31.1354 184.728 29.5352 184.49 26.8393H197.782L197.822 26.587C197.888 26.2085 197.948 25.8566 197.981 25.498C198.41 20.5312 196.11 15.5245 189.99 15.5245L189.983 15.5312ZM189.619 19.2828C192.462 19.2828 193.559 21.5538 193.651 23.7516H184.715C185.383 20.9893 187.253 19.2828 189.619 19.2828Z" fill="#999999"/>
<path d="M214.908 28.7051C213.243 30.2456 211.808 30.903 210.123 30.903C207.122 30.903 205.066 28.4661 205.351 25.2323V25.1659C205.635 22.0052 208.087 19.5285 210.943 19.5285C213.097 19.5285 214.313 20.5975 215.305 21.7529L215.417 21.8791L218.517 18.8379L218.418 18.725C216.534 16.5139 214.346 15.5311 211.326 15.5311C205.932 15.5311 201.339 19.7874 200.863 25.2257V25.2921C200.387 30.6706 204.214 34.8871 209.568 34.8871C212.721 34.8871 215.067 33.8446 217.42 31.4143L217.532 31.2948L215.034 28.5856L214.908 28.7051Z" fill="#999999"/>
<path d="M228.081 10.903H223.593L223.157 15.9096H220.857L220.513 19.8339H222.813L221.994 29.2695C221.676 32.9282 223.329 34.7874 226.905 34.7874C228.392 34.7874 229.529 34.5085 230.811 33.8313L230.904 33.7848L231.234 29.9999L230.983 30.1194C230.15 30.5178 229.291 30.7237 228.425 30.7237C227.011 30.7237 226.416 30.053 226.541 28.6121L227.308 19.8339H232.186L232.53 15.9096H227.652L228.088 10.903H228.081Z" fill="#999999"/>
<path d="M244.804 15.5311C239.278 15.5311 234.572 19.7874 234.103 25.2257V25.2921C233.627 30.6706 237.56 34.8871 243.052 34.8871C248.545 34.8871 253.317 30.644 253.787 25.2257V25.1593C254.269 19.6679 250.409 15.5311 244.811 15.5311H244.804ZM238.598 25.1593C238.882 21.8924 241.314 19.5218 244.388 19.5218C247.461 19.5218 249.576 21.972 249.292 25.2257V25.2921C249.001 28.5391 246.556 30.8897 243.462 30.8897C240.369 30.8897 238.313 28.3997 238.584 25.2191V25.1527L238.598 25.1593Z" fill="#999999"/>
<path d="M269.28 15.571C266.491 15.4515 264.223 16.7795 262.677 19.4289L262.981 15.9163H258.46L256.84 34.482H261.361L261.983 27.3771C262.373 22.8951 264.792 20.3253 268.619 20.3253H269.022L269.438 15.5776H269.28V15.571Z" fill="#999999"/>
</svg>
