<svg width="44" height="44" viewBox="0 0 44 44" fill="none" xmlns="http://www.w3.org/2000/svg">
<path d="M22 24.5667L27.3167 29.8833C27.6528 30.2194 28.0806 30.3875 28.6 30.3875C29.1194 30.3875 29.5472 30.2194 29.8833 29.8833C30.2194 29.5472 30.3875 29.1194 30.3875 28.6C30.3875 28.0806 30.2194 27.6528 29.8833 27.3167L24.5667 22L29.8833 16.6833C30.2194 16.3472 30.3875 15.9194 30.3875 15.4C30.3875 14.8806 30.2194 14.4528 29.8833 14.1167C29.5472 13.7806 29.1194 13.6125 28.6 13.6125C28.0806 13.6125 27.6528 13.7806 27.3167 14.1167L22 19.4333L16.6833 14.1167C16.3472 13.7806 15.9194 13.6125 15.4 13.6125C14.8806 13.6125 14.4528 13.7806 14.1167 14.1167C13.7806 14.4528 13.6125 14.8806 13.6125 15.4C13.6125 15.9194 13.7806 16.3472 14.1167 16.6833L19.4333 22L14.1167 27.3167C13.7806 27.6528 13.6125 28.0806 13.6125 28.6C13.6125 29.1194 13.7806 29.5472 14.1167 29.8833C14.4528 30.2194 14.8806 30.3875 15.4 30.3875C15.9194 30.3875 16.3472 30.2194 16.6833 29.8833L22 24.5667ZM22 40.3333C19.4639 40.3333 17.0806 39.8521 14.85 38.8896C12.6194 37.9271 10.6792 36.6208 9.02917 34.9708C7.37917 33.3208 6.07292 31.3806 5.11042 29.15C4.14792 26.9194 3.66667 24.5361 3.66667 22C3.66667 19.4639 4.14792 17.0806 5.11042 14.85C6.07292 12.6194 7.37917 10.6792 9.02917 9.02916C10.6792 7.37916 12.6194 6.07291 14.85 5.11041C17.0806 4.14791 19.4639 3.66666 22 3.66666C24.5361 3.66666 26.9194 4.14791 29.15 5.11041C31.3806 6.07291 33.3208 7.37916 34.9708 9.02916C36.6208 10.6792 37.9271 12.6194 38.8896 14.85C39.8521 17.0806 40.3333 19.4639 40.3333 22C40.3333 24.5361 39.8521 26.9194 38.8896 29.15C37.9271 31.3806 36.6208 33.3208 34.9708 34.9708C33.3208 36.6208 31.3806 37.9271 29.15 38.8896C26.9194 39.8521 24.5361 40.3333 22 40.3333ZM22 36.6667C26.0944 36.6667 29.5625 35.2458 32.4042 32.4042C35.2458 29.5625 36.6667 26.0944 36.6667 22C36.6667 17.9056 35.2458 14.4375 32.4042 11.5958C29.5625 8.75416 26.0944 7.33333 22 7.33333C17.9056 7.33333 14.4375 8.75416 11.5958 11.5958C8.75417 14.4375 7.33334 17.9056 7.33334 22C7.33334 26.0944 8.75417 29.5625 11.5958 32.4042C14.4375 35.2458 17.9056 36.6667 22 36.6667Z" fill="#C13515"/>
</svg>
