<svg width="24" height="24" viewBox="0 0 24 24" fill="none" xmlns="http://www.w3.org/2000/svg">
<path d="M12.0003 11.4002L8.10029 15.3002C7.91696 15.4835 7.68363 15.5752 7.40029 15.5752C7.11696 15.5752 6.88363 15.4835 6.70029 15.3002C6.51696 15.1169 6.42529 14.8835 6.42529 14.6002C6.42529 14.3169 6.51696 14.0835 6.70029 13.9002L11.3003 9.3002C11.4003 9.2002 11.5086 9.12936 11.6253 9.0877C11.742 9.04603 11.867 9.0252 12.0003 9.0252C12.1336 9.0252 12.2586 9.04603 12.3753 9.0877C12.492 9.12936 12.6003 9.2002 12.7003 9.3002L17.3003 13.9002C17.4836 14.0835 17.5753 14.3169 17.5753 14.6002C17.5753 14.8835 17.4836 15.1169 17.3003 15.3002C17.117 15.4835 16.8836 15.5752 16.6003 15.5752C16.317 15.5752 16.0836 15.4835 15.9003 15.3002L12.0003 11.4002Z" fill="#7B7B7B"/>
</svg>
