<svg width="120" height="120" viewBox="0 0 120 120" fill="none" xmlns="http://www.w3.org/2000/svg">
<path d="M60 67L74.5 81.5C75.4167 82.4167 76.5833 82.875 78 82.875C79.4167 82.875 80.5833 82.4167 81.5 81.5C82.4167 80.5833 82.875 79.4167 82.875 78C82.875 76.5833 82.4167 75.4167 81.5 74.5L67 60L81.5 45.5C82.4167 44.5833 82.875 43.4167 82.875 42C82.875 40.5833 82.4167 39.4167 81.5 38.5C80.5833 37.5833 79.4167 37.125 78 37.125C76.5833 37.125 75.4167 37.5833 74.5 38.5L60 53L45.5 38.5C44.5833 37.5833 43.4167 37.125 42 37.125C40.5833 37.125 39.4167 37.5833 38.5 38.5C37.5833 39.4167 37.125 40.5833 37.125 42C37.125 43.4167 37.5833 44.5833 38.5 45.5L53 60L38.5 74.5C37.5833 75.4167 37.125 76.5833 37.125 78C37.125 79.4167 37.5833 80.5833 38.5 81.5C39.4167 82.4167 40.5833 82.875 42 82.875C43.4167 82.875 44.5833 82.4167 45.5 81.5L60 67ZM60 110C53.0833 110 46.5833 108.688 40.5 106.062C34.4167 103.438 29.125 99.875 24.625 95.375C20.125 90.875 16.5625 85.5833 13.9375 79.5C11.3125 73.4167 10 66.9167 10 60C10 53.0833 11.3125 46.5833 13.9375 40.5C16.5625 34.4167 20.125 29.125 24.625 24.625C29.125 20.125 34.4167 16.5625 40.5 13.9375C46.5833 11.3125 53.0833 10 60 10C66.9167 10 73.4167 11.3125 79.5 13.9375C85.5833 16.5625 90.875 20.125 95.375 24.625C99.875 29.125 103.438 34.4167 106.062 40.5C108.688 46.5833 110 53.0833 110 60C110 66.9167 108.688 73.4167 106.062 79.5C103.438 85.5833 99.875 90.875 95.375 95.375C90.875 99.875 85.5833 103.438 79.5 106.062C73.4167 108.688 66.9167 110 60 110ZM60 100C71.1667 100 80.625 96.125 88.375 88.375C96.125 80.625 100 71.1667 100 60C100 48.8333 96.125 39.375 88.375 31.625C80.625 23.875 71.1667 20 60 20C48.8333 20 39.375 23.875 31.625 31.625C23.875 39.375 20 48.8333 20 60C20 71.1667 23.875 80.625 31.625 88.375C39.375 96.125 48.8333 100 60 100Z" fill="#C13515"/>
</svg>
