<svg width="44" height="44" viewBox="0 0 44 44" fill="none" xmlns="http://www.w3.org/2000/svg">
<path d="M9.16667 38.5C8.15833 38.5 7.29514 38.141 6.57708 37.4229C5.85903 36.7049 5.5 35.8417 5.5 34.8333V9.16667C5.5 8.15833 5.85903 7.29514 6.57708 6.57708C7.29514 5.85903 8.15833 5.5 9.16667 5.5H20.1667C20.6861 5.5 21.1215 5.67569 21.4729 6.02708C21.8243 6.37847 22 6.81389 22 7.33333C22 7.85278 21.8243 8.28819 21.4729 8.63958C21.1215 8.99097 20.6861 9.16667 20.1667 9.16667H9.16667V34.8333H20.1667C20.6861 34.8333 21.1215 35.009 21.4729 35.3604C21.8243 35.7118 22 36.1472 22 36.6667C22 37.1861 21.8243 37.6215 21.4729 37.9729C21.1215 38.3243 20.6861 38.5 20.1667 38.5H9.16667ZM31.4875 23.8333H18.3333C17.8139 23.8333 17.3785 23.6576 17.0271 23.3062C16.6757 22.9549 16.5 22.5194 16.5 22C16.5 21.4806 16.6757 21.0451 17.0271 20.6938C17.3785 20.3424 17.8139 20.1667 18.3333 20.1667H31.4875L28.05 16.7292C27.7139 16.3931 27.5458 15.9806 27.5458 15.4917C27.5458 15.0028 27.7139 14.575 28.05 14.2083C28.3861 13.8417 28.8139 13.6507 29.3333 13.6354C29.8528 13.6201 30.2958 13.7958 30.6625 14.1625L37.2167 20.7167C37.5833 21.0833 37.7667 21.5111 37.7667 22C37.7667 22.4889 37.5833 22.9167 37.2167 23.2833L30.6625 29.8375C30.2958 30.2042 29.8604 30.3799 29.3563 30.3646C28.8521 30.3493 28.4167 30.1583 28.05 29.7917C27.7139 29.425 27.5535 28.9896 27.5688 28.4854C27.584 27.9813 27.7597 27.5611 28.0958 27.225L31.4875 23.8333Z" fill="#7B7B7B"/>
</svg>
