<svg width="44" height="44" viewBox="0 0 44 44" fill="none" xmlns="http://www.w3.org/2000/svg">
<path d="M17.4167 29.3333C14.0861 29.3333 11.2674 28.1799 8.96042 25.8729C6.65347 23.566 5.5 20.7472 5.5 17.4167C5.5 14.0861 6.65347 11.2674 8.96042 8.96042C11.2674 6.65347 14.0861 5.5 17.4167 5.5C20.7472 5.5 23.566 6.65347 25.8729 8.96042C28.1799 11.2674 29.3333 14.0861 29.3333 17.4167C29.3333 18.7611 29.1194 20.0292 28.6917 21.2208C28.2639 22.4125 27.6833 23.4667 26.95 24.3833L37.2167 34.65C37.5528 34.9861 37.7208 35.4139 37.7208 35.9333C37.7208 36.4528 37.5528 36.8806 37.2167 37.2167C36.8806 37.5528 36.4528 37.7208 35.9333 37.7208C35.4139 37.7208 34.9861 37.5528 34.65 37.2167L24.3833 26.95C23.4667 27.6833 22.4125 28.2639 21.2208 28.6917C20.0292 29.1194 18.7611 29.3333 17.4167 29.3333ZM17.4167 25.6667C19.7083 25.6667 21.6562 24.8646 23.2604 23.2604C24.8646 21.6562 25.6667 19.7083 25.6667 17.4167C25.6667 15.125 24.8646 13.1771 23.2604 11.5729C21.6562 9.96875 19.7083 9.16667 17.4167 9.16667C15.125 9.16667 13.1771 9.96875 11.5729 11.5729C9.96875 13.1771 9.16667 15.125 9.16667 17.4167C9.16667 19.7083 9.96875 21.6562 11.5729 23.2604C13.1771 24.8646 15.125 25.6667 17.4167 25.6667Z" fill="#7B7B7B"/>
</svg>
