<svg width="44" height="44" viewBox="0 0 44 44" fill="none" xmlns="http://www.w3.org/2000/svg">
<path d="M22 38.5C18.15 38.5 14.7431 37.3313 11.7792 34.9938C8.81528 32.6563 6.89028 29.6694 6.00417 26.0333C5.88194 25.575 5.97361 25.1549 6.27917 24.7729C6.58472 24.391 6.99722 24.1694 7.51667 24.1083C8.00556 24.0472 8.44861 24.1389 8.84583 24.3833C9.24306 24.6278 9.51806 24.9944 9.67083 25.4833C10.4042 28.2333 11.9167 30.4792 14.2083 32.2208C16.5 33.9625 19.0972 34.8333 22 34.8333C25.575 34.8333 28.6076 33.5882 31.0979 31.0979C33.5882 28.6076 34.8333 25.575 34.8333 22C34.8333 18.425 33.5882 15.3924 31.0979 12.9021C28.6076 10.4118 25.575 9.16667 22 9.16667C19.8917 9.16667 17.9208 9.65556 16.0875 10.6333C14.2542 11.6111 12.7111 12.9556 11.4583 14.6667H14.6667C15.1861 14.6667 15.6215 14.8424 15.9729 15.1938C16.3243 15.5451 16.5 15.9806 16.5 16.5C16.5 17.0194 16.3243 17.4549 15.9729 17.8063C15.6215 18.1576 15.1861 18.3333 14.6667 18.3333H7.33333C6.81389 18.3333 6.37847 18.1576 6.02708 17.8063C5.67569 17.4549 5.5 17.0194 5.5 16.5V9.16667C5.5 8.64722 5.67569 8.21181 6.02708 7.86042C6.37847 7.50903 6.81389 7.33333 7.33333 7.33333C7.85278 7.33333 8.28819 7.50903 8.63958 7.86042C8.99097 8.21181 9.16667 8.64722 9.16667 9.16667V11.6417C10.725 9.68611 12.6271 8.17361 14.8729 7.10417C17.1188 6.03472 19.4944 5.5 22 5.5C24.2917 5.5 26.4382 5.93542 28.4396 6.80625C30.441 7.67708 32.1826 8.85347 33.6646 10.3354C35.1465 11.8174 36.3229 13.559 37.1938 15.5604C38.0646 17.5618 38.5 19.7083 38.5 22C38.5 24.2917 38.0646 26.4382 37.1938 28.4396C36.3229 30.441 35.1465 32.1826 33.6646 33.6646C32.1826 35.1465 30.441 36.3229 28.4396 37.1938C26.4382 38.0646 24.2917 38.5 22 38.5ZM23.8333 21.2667L28.4167 25.85C28.7528 26.1861 28.9208 26.6139 28.9208 27.1333C28.9208 27.6528 28.7528 28.0806 28.4167 28.4167C28.0806 28.7528 27.6528 28.9208 27.1333 28.9208C26.6139 28.9208 26.1861 28.7528 25.85 28.4167L20.7167 23.2833C20.5333 23.1 20.3958 22.8938 20.3042 22.6646C20.2125 22.4354 20.1667 22.1986 20.1667 21.9542V14.6667C20.1667 14.1472 20.3424 13.7118 20.6938 13.3604C21.0451 13.009 21.4806 12.8333 22 12.8333C22.5194 12.8333 22.9549 13.009 23.3063 13.3604C23.6576 13.7118 23.8333 14.1472 23.8333 14.6667V21.2667Z" fill="#E72E6B"/>
</svg>
